<?xml version="1.0" standalone="no"?>
 <!DOCTYPE svg PUBLIC "-//W3C//DTD SVG 1.1//EN" 
 "http://www.w3.org/Graphics/SVG/1.1/DTD/svg11.dtd"> 
<svg xmlns="http://www.w3.org/2000/svg" version="1.1" 
    width="9.98474cm" height="6.34746cm" viewBox="0 0 39310 24990">
<title>SVG Picture created as bottomhatch-B_Cu.svg date 2019/12/15 02:24:52 </title>
  <desc>Picture generated by PCBNEW </desc>
<g style="fill:#000000; fill-opacity:1;stroke:#000000; stroke-opacity:1;
stroke-linecap:round; stroke-linejoin:round;"
 transform="translate(0 0) scale(1 1)">
</g>
<g style="fill:#000000; fill-opacity:0.0; 
stroke:#000000; stroke-width:-0.000393701; stroke-opacity:1; 
stroke-linecap:round; stroke-linejoin:round;">
<g >
</g>
<g >
</g>
<g style="fill:#000000; fill-opacity:0.0; 
stroke:#000000; stroke-width:-0.000393701; stroke-opacity:1; 
stroke-linecap:round; stroke-linejoin:round;">
</g>
<g style="fill:#000000; fill-opacity:0.0; 
stroke:#000000; stroke-width:40; stroke-opacity:1; 
stroke-linecap:round; stroke-linejoin:round;">
<path d="M39292 4599
L39292 20
" />
<path d="M39292 24979
L39292 4599
" />
<path d="M20540 24979
L39292 24979
" />
<path d="M20 24979
L20540 24979
" />
<path d="M20 20679
L20 24979
" />
<path d="M20 20
L20 20679
" />
<path d="M39292 20
L20 20
" />
<path d="M18432 24340
L18436 24390
" />
<path d="M18429 24309
L18432 24340
" />
<path d="M18402 24201
L18429 24309
" />
<path d="M18396 24183
L18402 24201
" />
<path d="M18372 24134
L18396 24183
" />
<path d="M18349 24090
L18372 24134
" />
<path d="M18338 24074
L18349 24090
" />
<path d="M18302 24037
L18338 24074
" />
<path d="M18302 23928
L18302 24037
" />
<path d="M18301 23875
L18302 23928
" />
<path d="M18297 23850
L18301 23875
" />
<path d="M18289 23826
L18297 23850
" />
<path d="M18278 23804
L18289 23826
" />
<path d="M18263 23783
L18278 23804
" />
<path d="M18129 23648
L18263 23783
" />
<path d="M18109 23632
L18129 23648
" />
<path d="M18088 23618
L18109 23632
" />
<path d="M18064 23609
L18088 23618
" />
<path d="M18040 23603
L18064 23609
" />
<path d="M18015 23601
L18040 23603
" />
<path d="M3912 23601
L18015 23601
" />
<path d="M3451 23140
L3912 23601
" />
<path d="M3451 23092
L3451 23140
" />
<path d="M3530 23092
L3451 23092
" />
<path d="M3530 22613
L3530 23092
" />
<path d="M3051 22613
L3530 22613
" />
<path d="M3051 23092
L3051 22613
" />
<path d="M3129 23092
L3051 23092
" />
<path d="M3129 23167
L3129 23092
" />
<path d="M3130 23219
L3129 23167
" />
<path d="M3134 23244
L3130 23219
" />
<path d="M3142 23268
L3134 23244
" />
<path d="M3153 23291
L3142 23268
" />
<path d="M3168 23311
L3153 23291
" />
<path d="M3732 23876
L3168 23311
" />
<path d="M3751 23892
L3732 23876
" />
<path d="M3772 23905
L3751 23892
" />
<path d="M3796 23915
L3772 23905
" />
<path d="M3820 23921
L3796 23915
" />
<path d="M3845 23923
L3820 23921
" />
<path d="M17948 23923
L3845 23923
" />
<path d="M17980 23955
L17948 23923
" />
<path d="M17980 24037
L17980 23955
" />
<path d="M17943 24074
L17980 24037
" />
<path d="M17932 24090
L17943 24074
" />
<path d="M17889 24176
L17932 24090
" />
<path d="M17881 24194
L17889 24176
" />
<path d="M17864 24261
L17881 24194
" />
<path d="M17852 24309
L17864 24261
" />
<path d="M17846 24389
L17852 24309
" />
<path d="M17842 24439
L17846 24389
" />
<path d="M17848 24518
L17842 24439
" />
<path d="M17852 24568
L17848 24518
" />
<path d="M17880 24677
L17852 24568
" />
<path d="M17886 24695
L17880 24677
" />
<path d="M17910 24744
L17886 24695
" />
<path d="M17932 24788
L17910 24744
" />
<path d="M17944 24804
L17932 24788
" />
<path d="M17971 24833
L17944 24804
" />
<path d="M18006 24868
L17971 24833
" />
<path d="M18021 24879
L18006 24868
" />
<path d="M18038 24888
L18021 24879
" />
<path d="M18066 24897
L18038 24888
" />
<path d="M18113 24912
L18066 24897
" />
<path d="M18132 24915
L18113 24912
" />
<path d="M18151 24914
L18132 24915
" />
<path d="M18170 24911
L18151 24914
" />
<path d="M18194 24904
L18170 24911
" />
<path d="M18241 24889
L18194 24904
" />
<path d="M18258 24880
L18241 24889
" />
<path d="M18274 24869
L18258 24880
" />
<path d="M18304 24839
L18274 24869
" />
<path d="M18338 24804
L18304 24839
" />
<path d="M18349 24788
L18338 24804
" />
<path d="M18393 24702
L18349 24788
" />
<path d="M18400 24684
L18393 24702
" />
<path d="M18417 24617
L18400 24684
" />
<path d="M18429 24569
L18417 24617
" />
<path d="M18436 24488
L18429 24569
" />
<path d="M18438 24518
L18436 24488
" />
<path d="M18443 24568
L18438 24518
" />
<path d="M18470 24677
L18443 24568
" />
<path d="M18476 24695
L18470 24677
" />
<path d="M18501 24744
L18476 24695
" />
<path d="M18523 24788
L18501 24744
" />
<path d="M18534 24804
L18523 24788
" />
<path d="M18562 24833
L18534 24804
" />
<path d="M18597 24868
L18562 24833
" />
<path d="M18612 24879
L18597 24868
" />
<path d="M18629 24888
L18612 24879
" />
<path d="M18656 24897
L18629 24888
" />
<path d="M18704 24912
L18656 24897
" />
<path d="M18723 24915
L18704 24912
" />
<path d="M18742 24914
L18723 24915
" />
<path d="M18761 24911
L18742 24914
" />
<path d="M18785 24904
L18761 24911
" />
<path d="M18832 24889
L18785 24904
" />
<path d="M18849 24880
L18832 24889
" />
<path d="M18864 24869
L18849 24880
" />
<path d="M18894 24839
L18864 24869
" />
<path d="M18929 24804
L18894 24839
" />
<path d="M18940 24788
L18929 24804
" />
<path d="M18983 24702
L18940 24788
" />
<path d="M18991 24684
L18983 24702
" />
<path d="M19008 24617
L18991 24684
" />
<path d="M19020 24569
L19008 24617
" />
<path d="M19027 24488
L19020 24569
" />
<path d="M19029 24518
L19027 24488
" />
<path d="M19033 24568
L19029 24518
" />
<path d="M19061 24677
L19033 24568
" />
<path d="M19067 24695
L19061 24677
" />
<path d="M19091 24744
L19067 24695
" />
<path d="M19114 24788
L19091 24744
" />
<path d="M19125 24804
L19114 24788
" />
<path d="M19152 24833
L19125 24804
" />
<path d="M19187 24868
L19152 24833
" />
<path d="M19203 24879
L19187 24868
" />
<path d="M19220 24888
L19203 24879
" />
<path d="M19247 24897
L19220 24888
" />
<path d="M19294 24912
L19247 24897
" />
<path d="M19313 24915
L19294 24912
" />
<path d="M19332 24914
L19313 24915
" />
<path d="M19351 24911
L19332 24914
" />
<path d="M19375 24904
L19351 24911
" />
<path d="M19422 24889
L19375 24904
" />
<path d="M19439 24880
L19422 24889
" />
<path d="M19455 24869
L19439 24880
" />
<path d="M19485 24839
L19455 24869
" />
<path d="M19519 24804
L19485 24839
" />
<path d="M19530 24788
L19519 24804
" />
<path d="M19574 24702
L19530 24788
" />
<path d="M19581 24684
L19574 24702
" />
<path d="M19598 24617
L19581 24684
" />
<path d="M19610 24569
L19598 24617
" />
<path d="M19617 24488
L19610 24569
" />
<path d="M19620 24518
L19617 24488
" />
<path d="M19624 24568
L19620 24518
" />
<path d="M19651 24677
L19624 24568
" />
<path d="M19657 24695
L19651 24677
" />
<path d="M19682 24744
L19657 24695
" />
<path d="M19704 24788
L19682 24744
" />
<path d="M19715 24804
L19704 24788
" />
<path d="M19743 24833
L19715 24804
" />
<path d="M19778 24868
L19743 24833
" />
<path d="M19793 24879
L19778 24868
" />
<path d="M19810 24888
L19793 24879
" />
<path d="M19838 24897
L19810 24888
" />
<path d="M19885 24912
L19838 24897
" />
<path d="M19904 24915
L19885 24912
" />
<path d="M19923 24914
L19904 24915
" />
<path d="M19942 24911
L19923 24914
" />
<path d="M19966 24904
L19942 24911
" />
<path d="M20013 24889
L19966 24904
" />
<path d="M20030 24880
L20013 24889
" />
<path d="M20045 24869
L20030 24880
" />
<path d="M20075 24839
L20045 24869
" />
<path d="M20110 24804
L20075 24839
" />
<path d="M20121 24788
L20110 24804
" />
<path d="M20164 24702
L20121 24788
" />
<path d="M20172 24684
L20164 24702
" />
<path d="M20189 24617
L20172 24684
" />
<path d="M20201 24569
L20189 24617
" />
<path d="M20208 24488
L20201 24569
" />
<path d="M20210 24518
L20208 24488
" />
<path d="M20214 24568
L20210 24518
" />
<path d="M20242 24677
L20214 24568
" />
<path d="M20248 24695
L20242 24677
" />
<path d="M20272 24744
L20248 24695
" />
<path d="M20295 24788
L20272 24744
" />
<path d="M20306 24804
L20295 24788
" />
<path d="M20333 24833
L20306 24804
" />
<path d="M20368 24868
L20333 24833
" />
<path d="M20384 24879
L20368 24868
" />
<path d="M20401 24888
L20384 24879
" />
<path d="M20428 24897
L20401 24888
" />
<path d="M20475 24912
L20428 24897
" />
<path d="M20494 24915
L20475 24912
" />
<path d="M20513 24914
L20494 24915
" />
<path d="M20532 24911
L20513 24914
" />
<path d="M20556 24904
L20532 24911
" />
<path d="M20603 24889
L20556 24904
" />
<path d="M20620 24880
L20603 24889
" />
<path d="M20636 24869
L20620 24880
" />
<path d="M20666 24839
L20636 24869
" />
<path d="M20700 24804
L20666 24839
" />
<path d="M20711 24788
L20700 24804
" />
<path d="M20755 24702
L20711 24788
" />
<path d="M20762 24684
L20755 24702
" />
<path d="M20779 24617
L20762 24684
" />
<path d="M20791 24569
L20779 24617
" />
<path d="M20798 24488
L20791 24569
" />
<path d="M20801 24518
L20798 24488
" />
<path d="M20805 24568
L20801 24518
" />
<path d="M20832 24677
L20805 24568
" />
<path d="M20838 24695
L20832 24677
" />
<path d="M20863 24744
L20838 24695
" />
<path d="M20885 24788
L20863 24744
" />
<path d="M20896 24804
L20885 24788
" />
<path d="M20924 24833
L20896 24804
" />
<path d="M20959 24868
L20924 24833
" />
<path d="M20974 24879
L20959 24868
" />
<path d="M20991 24888
L20974 24879
" />
<path d="M21019 24897
L20991 24888
" />
<path d="M21066 24912
L21019 24897
" />
<path d="M21085 24915
L21066 24912
" />
<path d="M21104 24914
L21085 24915
" />
<path d="M21123 24911
L21104 24914
" />
<path d="M21147 24904
L21123 24911
" />
<path d="M21194 24889
L21147 24904
" />
<path d="M21211 24880
L21194 24889
" />
<path d="M21227 24869
L21211 24880
" />
<path d="M21256 24839
L21227 24869
" />
<path d="M21291 24804
L21256 24839
" />
<path d="M21302 24788
L21291 24804
" />
<path d="M21346 24702
L21302 24788
" />
<path d="M21353 24684
L21346 24702
" />
<path d="M21370 24617
L21353 24684
" />
<path d="M21382 24569
L21370 24617
" />
<path d="M21389 24488
L21382 24569
" />
<path d="M21392 24439
L21389 24488
" />
<path d="M21385 24340
L21392 24439
" />
<path d="M21382 24309
L21385 24340
" />
<path d="M21355 24201
L21382 24309
" />
<path d="M21349 24183
L21355 24201
" />
<path d="M21324 24134
L21349 24183
" />
<path d="M21302 24090
L21324 24134
" />
<path d="M21291 24074
L21302 24090
" />
<path d="M21254 24037
L21291 24074
" />
<path d="M21254 23954
L21254 24037
" />
<path d="M21286 23923
L21254 23954
" />
<path d="M35431 23923
L21286 23923
" />
<path d="M35484 23922
L35431 23923
" />
<path d="M35509 23918
L35484 23922
" />
<path d="M35533 23911
L35509 23918
" />
<path d="M35556 23899
L35533 23911
" />
<path d="M35576 23884
L35556 23899
" />
<path d="M36112 23349
L35576 23884
" />
<path d="M36149 23311
L36112 23349
" />
<path d="M36164 23291
L36149 23311
" />
<path d="M36175 23268
L36164 23291
" />
<path d="M36183 23244
L36175 23268
" />
<path d="M36187 23219
L36183 23244
" />
<path d="M36188 23092
L36187 23219
" />
<path d="M36266 23092
L36188 23092
" />
<path d="M36266 22613
L36266 23092
" />
<path d="M35787 22613
L36266 22613
" />
<path d="M35787 23092
L35787 22613
" />
<path d="M35866 23092
L35787 23092
" />
<path d="M35866 23140
L35866 23092
" />
<path d="M35405 23601
L35866 23140
" />
<path d="M21259 23601
L35405 23601
" />
<path d="M21207 23601
L21259 23601
" />
<path d="M21182 23605
L21207 23601
" />
<path d="M21158 23613
L21182 23605
" />
<path d="M21135 23625
L21158 23613
" />
<path d="M21115 23639
L21135 23625
" />
<path d="M21008 23746
L21115 23639
" />
<path d="M20971 23783
L21008 23746
" />
<path d="M20956 23804
L20971 23783
" />
<path d="M20945 23826
L20956 23804
" />
<path d="M20937 23850
L20945 23826
" />
<path d="M20933 23875
L20937 23850
" />
<path d="M20932 24037
L20933 23875
" />
<path d="M20896 24074
L20932 24037
" />
<path d="M20885 24090
L20896 24074
" />
<path d="M20841 24176
L20885 24090
" />
<path d="M20834 24194
L20841 24176
" />
<path d="M20817 24261
L20834 24194
" />
<path d="M20805 24309
L20817 24261
" />
<path d="M20798 24389
L20805 24309
" />
<path d="M20794 24340
L20798 24389
" />
<path d="M20791 24309
L20794 24340
" />
<path d="M20764 24201
L20791 24309
" />
<path d="M20758 24183
L20764 24201
" />
<path d="M20734 24134
L20758 24183
" />
<path d="M20711 24090
L20734 24134
" />
<path d="M20700 24074
L20711 24090
" />
<path d="M20664 24037
L20700 24074
" />
<path d="M20664 23899
L20664 24037
" />
<path d="M21066 23498
L20664 23899
" />
<path d="M28299 23498
L21066 23498
" />
<path d="M28324 23496
L28299 23498
" />
<path d="M28349 23490
L28324 23496
" />
<path d="M28372 23480
L28349 23490
" />
<path d="M28394 23467
L28372 23480
" />
<path d="M28413 23450
L28394 23467
" />
<path d="M28862 23002
L28413 23450
" />
<path d="M29184 23002
L28862 23002
" />
<path d="M29184 23080
L29184 23002
" />
<path d="M29664 23080
L29184 23080
" />
<path d="M29664 22601
L29664 23080
" />
<path d="M29184 22601
L29664 22601
" />
<path d="M29184 22680
L29184 22601
" />
<path d="M28795 22680
L29184 22680
" />
<path d="M28770 22682
L28795 22680
" />
<path d="M28745 22687
L28770 22682
" />
<path d="M28722 22697
L28745 22687
" />
<path d="M28700 22710
L28722 22697
" />
<path d="M28681 22727
L28700 22710
" />
<path d="M28232 23176
L28681 22727
" />
<path d="M21039 23176
L28232 23176
" />
<path d="M20986 23176
L21039 23176
" />
<path d="M20961 23180
L20986 23176
" />
<path d="M20937 23188
L20961 23180
" />
<path d="M20915 23199
L20937 23188
" />
<path d="M20894 23214
L20915 23199
" />
<path d="M20389 23719
L20894 23214
" />
<path d="M20373 23738
L20389 23719
" />
<path d="M20360 23760
L20373 23738
" />
<path d="M20350 23783
L20360 23760
" />
<path d="M20344 23807
L20350 23783
" />
<path d="M20342 23833
L20344 23807
" />
<path d="M20342 24037
L20342 23833
" />
<path d="M20306 24074
L20342 24037
" />
<path d="M20295 24090
L20306 24074
" />
<path d="M20251 24176
L20295 24090
" />
<path d="M20244 24194
L20251 24176
" />
<path d="M20226 24261
L20244 24194
" />
<path d="M20215 24309
L20226 24261
" />
<path d="M20208 24389
L20215 24309
" />
<path d="M20204 24340
L20208 24389
" />
<path d="M20201 24309
L20204 24340
" />
<path d="M20174 24201
L20201 24309
" />
<path d="M20167 24183
L20174 24201
" />
<path d="M20143 24134
L20167 24183
" />
<path d="M20121 24090
L20143 24134
" />
<path d="M20110 24074
L20121 24090
" />
<path d="M20073 24037
L20110 24074
" />
<path d="M20073 23954
L20073 24037
" />
<path d="M21015 23013
L20073 23954
" />
<path d="M22668 23013
L21015 23013
" />
<path d="M22669 23092
L22668 23013
" />
<path d="M23148 23092
L22669 23092
" />
<path d="M23148 22613
L23148 23092
" />
<path d="M22669 22613
L23148 22613
" />
<path d="M22669 22691
L22669 22613
" />
<path d="M20988 22691
L22669 22691
" />
<path d="M20935 22692
L20988 22691
" />
<path d="M20910 22696
L20935 22692
" />
<path d="M20886 22704
L20910 22696
" />
<path d="M20864 22715
L20886 22704
" />
<path d="M20843 22730
L20864 22715
" />
<path d="M19799 23774
L20843 22730
" />
<path d="M19782 23793
L19799 23774
" />
<path d="M19769 23815
L19782 23793
" />
<path d="M19759 23838
L19769 23815
" />
<path d="M19753 23863
L19759 23838
" />
<path d="M19751 23888
L19753 23863
" />
<path d="M19751 24037
L19751 23888
" />
<path d="M19715 24074
L19751 24037
" />
<path d="M19704 24090
L19715 24074
" />
<path d="M19660 24176
L19704 24090
" />
<path d="M19653 24194
L19660 24176
" />
<path d="M19636 24261
L19653 24194
" />
<path d="M19624 24309
L19636 24261
" />
<path d="M19617 24389
L19624 24309
" />
<path d="M19613 24340
L19617 24389
" />
<path d="M19610 24309
L19613 24340
" />
<path d="M19583 24201
L19610 24309
" />
<path d="M19577 24183
L19583 24201
" />
<path d="M19553 24134
L19577 24183
" />
<path d="M19530 24090
L19553 24134
" />
<path d="M19519 24074
L19530 24090
" />
<path d="M19483 24037
L19519 24074
" />
<path d="M19483 23928
L19483 24037
" />
<path d="M19482 23875
L19483 23928
" />
<path d="M19478 23850
L19482 23875
" />
<path d="M19471 23826
L19478 23850
" />
<path d="M19459 23804
L19471 23826
" />
<path d="M19444 23783
L19459 23804
" />
<path d="M18429 22767
L19444 23783
" />
<path d="M18391 22730
L18429 22767
" />
<path d="M18371 22715
L18391 22730
" />
<path d="M18348 22704
L18371 22715
" />
<path d="M18324 22696
L18348 22704
" />
<path d="M18299 22692
L18324 22696
" />
<path d="M16625 22691
L18299 22692
" />
<path d="M16625 22613
L16625 22691
" />
<path d="M16145 22613
L16625 22613
" />
<path d="M16145 23092
L16145 22613
" />
<path d="M16625 23092
L16145 23092
" />
<path d="M16625 23013
L16625 23092
" />
<path d="M18220 23013
L16625 23013
" />
<path d="M19161 23955
L18220 23013
" />
<path d="M19161 24032
L19161 23955
" />
<path d="M19147 24037
L19161 24032
" />
<path d="M19132 24044
L19147 24037
" />
<path d="M19119 24052
L19132 24044
" />
<path d="M19106 24060
L19119 24052
" />
<path d="M19093 24070
L19106 24060
" />
<path d="M19082 24081
L19093 24070
" />
<path d="M19071 24092
L19082 24081
" />
<path d="M19061 24105
L19071 24092
" />
<path d="M19053 24118
L19061 24105
" />
<path d="M19045 24131
L19053 24118
" />
<path d="M19038 24146
L19045 24131
" />
<path d="M19033 24161
L19038 24146
" />
<path d="M19029 24176
L19033 24161
" />
<path d="M19026 24191
L19029 24176
" />
<path d="M19024 24207
L19026 24191
" />
<path d="M19023 24222
L19024 24207
" />
<path d="M19023 24346
L19023 24222
" />
<path d="M19020 24309
L19023 24346
" />
<path d="M18992 24201
L19020 24309
" />
<path d="M18986 24183
L18992 24201
" />
<path d="M18962 24134
L18986 24183
" />
<path d="M18940 24090
L18962 24134
" />
<path d="M18928 24074
L18940 24090
" />
<path d="M18892 24037
L18928 24074
" />
<path d="M18892 23928
L18892 24037
" />
<path d="M18892 23875
L18892 23928
" />
<path d="M18888 23850
L18892 23875
" />
<path d="M18880 23826
L18888 23850
" />
<path d="M18869 23804
L18880 23826
" />
<path d="M18854 23783
L18869 23804
" />
<path d="M18319 23248
L18854 23783
" />
<path d="M18300 23232
L18319 23248
" />
<path d="M18278 23218
L18300 23232
" />
<path d="M18255 23209
L18278 23218
" />
<path d="M18230 23203
L18255 23209
" />
<path d="M18205 23201
L18230 23203
" />
<path d="M11041 23201
L18205 23201
" />
<path d="M10606 22767
L11041 23201
" />
<path d="M10569 22730
L10606 22767
" />
<path d="M10548 22715
L10569 22730
" />
<path d="M10526 22704
L10548 22715
" />
<path d="M10502 22696
L10526 22704
" />
<path d="M10477 22692
L10502 22696
" />
<path d="M10066 22691
L10477 22692
" />
<path d="M10065 22613
L10066 22691
" />
<path d="M9586 22613
L10065 22613
" />
<path d="M9586 23092
L9586 22613
" />
<path d="M10065 23092
L9586 23092
" />
<path d="M10066 23013
L10065 23092
" />
<path d="M10398 23013
L10066 23013
" />
<path d="M10860 23476
L10398 23013
" />
<path d="M10879 23492
L10860 23476
" />
<path d="M10901 23505
L10879 23492
" />
<path d="M10924 23515
L10901 23505
" />
<path d="M10949 23521
L10924 23515
" />
<path d="M10974 23523
L10949 23521
" />
<path d="M18139 23523
L10974 23523
" />
<path d="M18570 23955
L18139 23523
" />
<path d="M18570 24037
L18570 23955
" />
<path d="M18534 24074
L18570 24037
" />
<path d="M18523 24090
L18534 24074
" />
<path d="M18479 24176
L18523 24090
" />
<path d="M18472 24194
L18479 24176
" />
<path d="M18455 24261
L18472 24194
" />
<path d="M18443 24309
L18455 24261
" />
<path d="M18436 24389
L18443 24309
" />
<path d="M18431 24320
L18436 24389
" />
<path d="M22 24587
L412 24977
" />
<path d="M22 23541
L1458 24977
" />
<path d="M22 22494
L2505 24977
" />
<path d="M22 21448
L3551 24977
" />
<path d="M22 20401
L4598 24977
" />
<path d="M4593 23926
L5644 24977
" />
<path d="M3533 22865
L4265 23598
" />
<path d="M22 19355
L3277 22610
" />
<path d="M5640 23926
L6691 24977
" />
<path d="M22 18308
L5312 23598
" />
<path d="M6686 23926
L7737 24977
" />
<path d="M22 17262
L6359 23598
" />
<path d="M7733 23926
L8784 24977
" />
<path d="M22 16215
L7405 23598
" />
<path d="M8779 23926
L9830 24977
" />
<path d="M22 15169
L8452 23598
" />
<path d="M9826 23926
L10877 24977
" />
<path d="M22 14122
L9498 23598
" />
<path d="M10872 23926
L11923 24977
" />
<path d="M10041 23095
L10545 23598
" />
<path d="M22 13076
L9583 22637
" />
<path d="M11919 23926
L12970 24977
" />
<path d="M11519 23526
L11591 23598
" />
<path d="M22 12029
L11191 23198
" />
<path d="M12965 23926
L14016 24977
" />
<path d="M12565 23526
L12638 23598
" />
<path d="M22 10983
L12238 23198
" />
<path d="M14012 23926
L15063 24977
" />
<path d="M13612 23526
L13684 23598
" />
<path d="M22 9936
L13284 23198
" />
<path d="M15058 23926
L16109 24977
" />
<path d="M14658 23526
L14731 23598
" />
<path d="M22 8890
L14331 23198
" />
<path d="M16105 23926
L17156 24977
" />
<path d="M15705 23526
L15777 23598
" />
<path d="M22 7843
L15377 23198
" />
<path d="M18143 24918
L18202 24977
" />
<path d="M17151 23926
L17869 24643
" />
<path d="M16751 23526
L16824 23598
" />
<path d="M16321 23095
L16424 23198
" />
<path d="M22 6797
L16142 22917
" />
<path d="M18983 24711
L19249 24977
" />
<path d="M18305 24032
L18468 24196
" />
<path d="M17798 23526
L17870 23598
" />
<path d="M17288 23016
L17470 23198
" />
<path d="M22 5750
L16961 22689
" />
<path d="M20118 24799
L20295 24977
" />
<path d="M19608 24289
L19622 24303
" />
<path d="M22 4704
L18007 22689
" />
<path d="M21233 24868
L21342 24977
" />
<path d="M20199 23834
L20339 23974
" />
<path d="M22 3657
L19966 23601
" />
<path d="M21337 23926
L22388 24977
" />
<path d="M20990 23579
L21080 23668
" />
<path d="M20723 23311
L20757 23345
" />
<path d="M22 2611
L20489 23078
" />
<path d="M22384 23926
L23435 24977
" />
<path d="M21959 23500
L22056 23598
" />
<path d="M21474 23016
L21631 23173
" />
<path d="M22 1564
L21147 22689
" />
<path d="M23430 23926
L24481 24977
" />
<path d="M23005 23500
L23103 23598
" />
<path d="M22521 23016
L22678 23173
" />
<path d="M22 518
L22193 22689
" />
<path d="M24477 23926
L25528 24977
" />
<path d="M24052 23500
L24149 23598
" />
<path d="M574 22
L23724 23173
" />
<path d="M25523 23926
L26575 24977
" />
<path d="M25098 23500
L25196 23598
" />
<path d="M1620 22
L24771 23173
" />
<path d="M26570 23926
L27621 24977
" />
<path d="M26145 23500
L26242 23598
" />
<path d="M2667 22
L25817 23173
" />
<path d="M27616 23926
L28668 24977
" />
<path d="M27191 23500
L27289 23598
" />
<path d="M3713 22
L26864 23173
" />
<path d="M28663 23926
L29714 24977
" />
<path d="M28238 23500
L28335 23598
" />
<path d="M4760 22
L27910 23173
" />
<path d="M29710 23926
L30761 24977
" />
<path d="M28826 23042
L29382 23598
" />
<path d="M5806 22
L28593 22809
" />
<path d="M30756 23926
L31807 24977
" />
<path d="M29666 22836
L30428 23598
" />
<path d="M6853 22
L29428 22598
" />
<path d="M31803 23926
L32854 24977
" />
<path d="M7899 22
L31475 23598
" />
<path d="M32849 23926
L33900 24977
" />
<path d="M8946 22
L32521 23598
" />
<path d="M33896 23926
L34947 24977
" />
<path d="M9992 22
L33568 23598
" />
<path d="M34942 23926
L35993 24977
" />
<path d="M11039 22
L34615 23598
" />
<path d="M35765 23702
L37040 24977
" />
<path d="M12085 22
L35531 23468
" />
<path d="M36204 23095
L38086 24977
" />
<path d="M13132 22
L35784 22674
" />
<path d="M14178 22
L39133 24977
" />
<path d="M15225 22
L39289 24087
" />
<path d="M16271 22
L39289 23040
" />
<path d="M17318 22
L39289 21994
" />
<path d="M18364 22
L39289 20947
" />
<path d="M19411 22
L39289 19900
" />
<path d="M20458 22
L39289 18854
" />
<path d="M21504 22
L39289 17807
" />
<path d="M22551 22
L39289 16761
" />
<path d="M23597 22
L39289 15714
" />
<path d="M24644 22
L39289 14668
" />
<path d="M25690 22
L39289 13621
" />
<path d="M26737 22
L39289 12575
" />
<path d="M27783 22
L39289 11528
" />
<path d="M28830 22
L39289 10482
" />
<path d="M29876 22
L39289 9435
" />
<path d="M30923 22
L39289 8389
" />
<path d="M31969 22
L39289 7342
" />
<path d="M33016 22
L39289 6296
" />
<path d="M34062 22
L39289 5249
" />
<path d="M35109 22
L39289 4203
" />
<path d="M36155 22
L39289 3156
" />
<path d="M37202 22
L39289 2110
" />
<path d="M38248 22
L39289 1063
" />
<path d="M39289 24587
L38900 24977
" />
<path d="M39289 23541
L37853 24977
" />
<path d="M39289 22494
L36807 24977
" />
<path d="M39289 21448
L35760 24977
" />
<path d="M39289 20401
L34714 24977
" />
<path d="M34718 23926
L33667 24977
" />
<path d="M35784 22860
L35046 23598
" />
<path d="M39289 19355
L36034 22610
" />
<path d="M33672 23926
L32621 24977
" />
<path d="M39289 18308
L34000 23598
" />
<path d="M32625 23926
L31574 24977
" />
<path d="M39289 17262
L32953 23598
" />
<path d="M31579 23926
L30528 24977
" />
<path d="M39289 16215
L31906 23598
" />
<path d="M30532 23926
L29481 24977
" />
<path d="M39289 15169
L30860 23598
" />
<path d="M29486 23926
L28435 24977
" />
<path d="M39289 14122
L29813 23598
" />
<path d="M28439 23926
L27388 24977
" />
<path d="M29282 23083
L28767 23598
" />
<path d="M39289 13076
L29666 22699
" />
<path d="M27393 23926
L26342 24977
" />
<path d="M27818 23500
L27720 23598
" />
<path d="M39289 12029
L28146 23173
" />
<path d="M26346 23926
L25295 24977
" />
<path d="M26771 23500
L26674 23598
" />
<path d="M39289 10983
L27099 23173
" />
<path d="M25300 23926
L24249 24977
" />
<path d="M25725 23500
L25627 23598
" />
<path d="M39289 9936
L26053 23173
" />
<path d="M24253 23926
L23202 24977
" />
<path d="M24678 23500
L24581 23598
" />
<path d="M39289 8890
L25006 23173
" />
<path d="M23207 23926
L22156 24977
" />
<path d="M23632 23500
L23534 23598
" />
<path d="M39289 7843
L23959 23173
" />
<path d="M21197 24889
L21109 24977
" />
<path d="M22160 23926
L21310 24776
" />
<path d="M22585 23500
L22488 23598
" />
<path d="M22991 23095
L22913 23173
" />
<path d="M39289 6797
L23151 22935
" />
<path d="M20277 24762
L20063 24977
" />
<path d="M20827 24212
L20782 24257
" />
<path d="M21539 23500
L21441 23598
" />
<path d="M22023 23016
L21866 23173
" />
<path d="M39289 5750
L22351 22689
" />
<path d="M19153 24839
L19016 24977
" />
<path d="M39289 4704
L21304 22689
" />
<path d="M18050 24896
L17970 24977
" />
<path d="M19074 23873
L18904 24043
" />
<path d="M39289 3657
L19307 23639
" />
<path d="M17960 23940
L16923 24977
" />
<path d="M18255 23645
L18193 23707
" />
<path d="M18550 23349
L18488 23411
" />
<path d="M39289 2611
L18784 23116
" />
<path d="M16928 23926
L15877 24977
" />
<path d="M17328 23526
L17255 23598
" />
<path d="M17837 23016
L17655 23198
" />
<path d="M39289 1564
L18165 22689
" />
<path d="M15881 23926
L14830 24977
" />
<path d="M16281 23526
L16209 23598
" />
<path d="M16791 23016
L16609 23198
" />
<path d="M39289 518
L17118 22689
" />
<path d="M14835 23926
L13783 24977
" />
<path d="M15235 23526
L15162 23598
" />
<path d="M38738 22
L15562 23198
" />
<path d="M13788 23926
L12737 24977
" />
<path d="M14188 23526
L14116 23598
" />
<path d="M37691 22
L14516 23198
" />
<path d="M12742 23926
L11690 24977
" />
<path d="M13142 23526
L13069 23598
" />
<path d="M36645 22
L13469 23198
" />
<path d="M11695 23926
L10644 24977
" />
<path d="M12095 23526
L12023 23598
" />
<path d="M35598 22
L12423 23198
" />
<path d="M10648 23926
L9597 24977
" />
<path d="M11049 23526
L10976 23598
" />
<path d="M34552 22
L11376 23198
" />
<path d="M9602 23926
L8551 24977
" />
<path d="M10453 23074
L9930 23598
" />
<path d="M33505 22
L10686 22841
" />
<path d="M8555 23926
L7504 24977
" />
<path d="M9583 22898
L8883 23598
" />
<path d="M32459 22
L9871 22610
" />
<path d="M7509 23926
L6458 24977
" />
<path d="M31412 22
L7837 23598
" />
<path d="M6462 23926
L5411 24977
" />
<path d="M30366 22
L6790 23598
" />
<path d="M5416 23926
L4365 24977
" />
<path d="M29319 22
L5744 23598
" />
<path d="M4369 23926
L3318 24977
" />
<path d="M28273 22
L4697 23598
" />
<path d="M3549 23699
L2272 24977
" />
<path d="M27226 22
L3783 23466
" />
<path d="M3107 23095
L1225 24977
" />
<path d="M26180 22
L3533 22669
" />
<path d="M25133 22
L179 24977
" />
<path d="M24087 22
L22 24087
" />
<path d="M23040 22
L22 23040
" />
<path d="M21994 22
L22 21994
" />
<path d="M20947 22
L22 20947
" />
<path d="M19900 22
L22 19900
" />
<path d="M18854 22
L22 18854
" />
<path d="M17807 22
L22 17807
" />
<path d="M16761 22
L22 16761
" />
<path d="M15714 22
L22 15714
" />
<path d="M14668 22
L22 14668
" />
<path d="M13621 22
L22 13621
" />
<path d="M12575 22
L22 12575
" />
<path d="M11528 22
L22 11528
" />
<path d="M10482 22
L22 10482
" />
<path d="M9435 22
L22 9435
" />
<path d="M8389 22
L22 8389
" />
<path d="M7342 22
L22 7342
" />
<path d="M6296 22
L22 6296
" />
<path d="M5249 22
L22 5249
" />
<path d="M4203 22
L22 4203
" />
<path d="M3156 22
L22 3156
" />
<path d="M2110 22
L22 2110
" />
<path d="M1063 22
L22 1063
" />
</g>
<g >
</g>
</g>
<g style="fill:#FFFFFF; fill-opacity:0.0; 
stroke:#FFFFFF; stroke-width:40; stroke-opacity:1; 
stroke-linecap:round; stroke-linejoin:round;">
</g>
<g style="fill:#000000; fill-opacity:0.0; 
stroke:#000000; stroke-width:40; stroke-opacity:1; 
stroke-linecap:round; stroke-linejoin:round;">
</g> 
</svg>
