<?xml version="1.0" standalone="no"?>
 <!DOCTYPE svg PUBLIC "-//W3C//DTD SVG 1.1//EN" 
 "http://www.w3.org/Graphics/SVG/1.1/DTD/svg11.dtd"> 
<svg xmlns="http://www.w3.org/2000/svg" version="1.1" 
    width="9.98474cm" height="6.34746cm" viewBox="0 0 39310 24990">
<title>SVG Picture created as tophatch-F_Cu.svg date 2019/12/15 01:27:16 </title>
  <desc>Picture generated by PCBNEW </desc>
<g style="fill:#000000; fill-opacity:1;stroke:#000000; stroke-opacity:1;
stroke-linecap:round; stroke-linejoin:round;"
 transform="translate(0 0) scale(1 1)">
</g>
<g style="fill:#000000; fill-opacity:0.0; 
stroke:#000000; stroke-width:-0.000393701; stroke-opacity:1; 
stroke-linecap:round; stroke-linejoin:round;">
<g >
</g>
<g >
</g>
<g style="fill:#000000; fill-opacity:0.0; 
stroke:#000000; stroke-width:-0.000393701; stroke-opacity:1; 
stroke-linecap:round; stroke-linejoin:round;">
</g>
<g style="fill:#000000; fill-opacity:0.0; 
stroke:#000000; stroke-width:40; stroke-opacity:1; 
stroke-linecap:round; stroke-linejoin:round;">
<path d="M24024 2367
L32625 2367
" />
<path d="M13247 2367
L24024 2367
" />
<path d="M20 2367
L13247 2367
" />
<path d="M20 20
L20 2367
" />
<path d="M20092 20
L20 20
" />
<path d="M39292 20
L20092 20
" />
<path d="M39292 2367
L39292 20
" />
<path d="M32625 2367
L39292 2367
" />
<path d="M29084 22501
L29104 22501
" />
<path d="M29084 23180
L29084 22501
" />
<path d="M29764 23180
L29084 23180
" />
<path d="M29764 22501
L29764 23180
" />
<path d="M29704 22501
L29764 22501
" />
<path d="M29685 22495
L29704 22501
" />
<path d="M35766 22495
L29685 22495
" />
<path d="M35766 22512
L35766 22495
" />
<path d="M35687 22513
L35766 22512
" />
<path d="M35687 23192
L35687 22513
" />
<path d="M36366 23192
L35687 23192
" />
<path d="M36366 22513
L36366 23192
" />
<path d="M36288 22513
L36366 22513
" />
<path d="M36287 22495
L36288 22513
" />
<path d="M39292 22495
L36287 22495
" />
<path d="M39292 24979
L39292 22495
" />
<path d="M19480 24979
L39292 24979
" />
<path d="M20 24979
L19480 24979
" />
<path d="M20 22495
L20 24979
" />
<path d="M3020 22495
L20 22495
" />
<path d="M3020 22512
L3020 22495
" />
<path d="M2951 22513
L3020 22512
" />
<path d="M2951 23192
L2951 22513
" />
<path d="M3630 23192
L2951 23192
" />
<path d="M3630 22513
L3630 23192
" />
<path d="M3561 22513
L3630 22513
" />
<path d="M3561 22495
L3561 22513
" />
<path d="M9555 22495
L3561 22495
" />
<path d="M9555 22512
L9555 22495
" />
<path d="M9486 22513
L9555 22512
" />
<path d="M9486 23192
L9486 22513
" />
<path d="M10165 23192
L9486 23192
" />
<path d="M10165 22513
L10165 23192
" />
<path d="M10097 22513
L10165 22513
" />
<path d="M10097 22495
L10097 22513
" />
<path d="M16124 22495
L10097 22495
" />
<path d="M16124 22512
L16124 22495
" />
<path d="M16045 22513
L16124 22512
" />
<path d="M16045 23192
L16045 22513
" />
<path d="M16725 23192
L16045 23192
" />
<path d="M16725 22513
L16725 23192
" />
<path d="M16646 22513
L16725 22513
" />
<path d="M16646 22495
L16646 22513
" />
<path d="M22647 22495
L16646 22495
" />
<path d="M22647 22512
L22647 22495
" />
<path d="M22569 22513
L22647 22512
" />
<path d="M22569 23192
L22569 22513
" />
<path d="M23248 23192
L22569 23192
" />
<path d="M23248 22513
L23248 23192
" />
<path d="M23169 22513
L23248 22513
" />
<path d="M23169 22495
L23169 22513
" />
<path d="M25327 22495
L23169 22495
" />
<path d="M29163 22495
L25327 22495
" />
<path d="M29163 22501
L29163 22495
" />
<path d="M29104 22501
L29163 22501
" />
<path d="M22 24503
L496 24977
" />
<path d="M22 23810
L1189 24977
" />
<path d="M22 23117
L1882 24977
" />
<path d="M97 22498
L2575 24977
" />
<path d="M790 22498
L3268 24977
" />
<path d="M1483 22498
L3961 24977
" />
<path d="M2176 22498
L4654 24977
" />
<path d="M3565 23195
L5347 24977
" />
<path d="M2869 22498
L2948 22577
" />
<path d="M3633 22569
L6040 24977
" />
<path d="M3564 22500
L3573 22510
" />
<path d="M4255 22498
L6733 24977
" />
<path d="M4947 22498
L7426 24977
" />
<path d="M5640 22498
L8119 24977
" />
<path d="M6333 22498
L8812 24977
" />
<path d="M7026 22498
L9505 24977
" />
<path d="M7719 22498
L10198 24977
" />
<path d="M8412 22498
L10891 24977
" />
<path d="M9802 23195
L11584 24977
" />
<path d="M9105 22498
L9483 22876
" />
<path d="M10168 22868
L12277 24977
" />
<path d="M10491 22498
L12970 24977
" />
<path d="M11184 22498
L13663 24977
" />
<path d="M11877 22498
L14356 24977
" />
<path d="M12570 22498
L15049 24977
" />
<path d="M13263 22498
L15742 24977
" />
<path d="M13956 22498
L16435 24977
" />
<path d="M14649 22498
L17128 24977
" />
<path d="M15342 22498
L17821 24977
" />
<path d="M16727 23191
L18514 24977
" />
<path d="M16035 22498
L16047 22510
" />
<path d="M16728 22498
L19206 24977
" />
<path d="M17421 22498
L19899 24977
" />
<path d="M18114 22498
L20592 24977
" />
<path d="M18807 22498
L21285 24977
" />
<path d="M19500 22498
L21978 24977
" />
<path d="M20193 22498
L22671 24977
" />
<path d="M22 2328
L59 2364
" />
<path d="M20886 22498
L23364 24977
" />
<path d="M22 1635
L752 2364
" />
<path d="M21579 22498
L24057 24977
" />
<path d="M22 942
L1445 2364
" />
<path d="M22968 23195
L24750 24977
" />
<path d="M22272 22498
L22566 22792
" />
<path d="M22 249
L2138 2364
" />
<path d="M23251 22785
L25443 24977
" />
<path d="M489 22
L2831 2364
" />
<path d="M23657 22498
L26136 24977
" />
<path d="M1182 22
L3524 2364
" />
<path d="M24350 22498
L26829 24977
" />
<path d="M1875 22
L4217 2364
" />
<path d="M25043 22498
L27522 24977
" />
<path d="M2568 22
L4910 2364
" />
<path d="M25736 22498
L28215 24977
" />
<path d="M3261 22
L5602 2364
" />
<path d="M26429 22498
L28908 24977
" />
<path d="M3954 22
L6295 2364
" />
<path d="M27122 22498
L29601 24977
" />
<path d="M4647 22
L6988 2364
" />
<path d="M27815 22498
L30294 24977
" />
<path d="M5340 22
L7681 2364
" />
<path d="M29193 23183
L30987 24977
" />
<path d="M28508 22498
L29081 23071
" />
<path d="M6033 22
L8374 2364
" />
<path d="M29766 23063
L31680 24977
" />
<path d="M6726 22
L9067 2364
" />
<path d="M29894 22498
L32373 24977
" />
<path d="M7418 22
L9760 2364
" />
<path d="M30587 22498
L33066 24977
" />
<path d="M8111 22
L10453 2364
" />
<path d="M31280 22498
L33759 24977
" />
<path d="M8804 22
L11146 2364
" />
<path d="M31973 22498
L34452 24977
" />
<path d="M9497 22
L11839 2364
" />
<path d="M32666 22498
L35145 24977
" />
<path d="M10190 22
L12532 2364
" />
<path d="M33359 22498
L35838 24977
" />
<path d="M10883 22
L13225 2364
" />
<path d="M34052 22498
L36531 24977
" />
<path d="M11576 22
L13918 2364
" />
<path d="M34745 22498
L37224 24977
" />
<path d="M12269 22
L14611 2364
" />
<path d="M36135 23195
L37917 24977
" />
<path d="M35438 22498
L35684 22744
" />
<path d="M12962 22
L15304 2364
" />
<path d="M36369 22736
L38609 24977
" />
<path d="M13655 22
L15997 2364
" />
<path d="M36824 22498
L39289 24963
" />
<path d="M14348 22
L16690 2364
" />
<path d="M37517 22498
L39289 24270
" />
<path d="M15041 22
L17383 2364
" />
<path d="M38210 22498
L39289 23577
" />
<path d="M15734 22
L18076 2364
" />
<path d="M38903 22498
L39289 22884
" />
<path d="M16427 22
L18769 2364
" />
<path d="M17120 22
L19462 2364
" />
<path d="M17813 22
L20155 2364
" />
<path d="M18506 22
L20848 2364
" />
<path d="M19199 22
L21541 2364
" />
<path d="M19892 22
L22234 2364
" />
<path d="M20585 22
L22927 2364
" />
<path d="M21278 22
L23620 2364
" />
<path d="M21971 22
L24313 2364
" />
<path d="M22664 22
L25005 2364
" />
<path d="M23357 22
L25698 2364
" />
<path d="M24050 22
L26391 2364
" />
<path d="M24743 22
L27084 2364
" />
<path d="M25436 22
L27777 2364
" />
<path d="M26129 22
L28470 2364
" />
<path d="M26821 22
L29163 2364
" />
<path d="M27514 22
L29856 2364
" />
<path d="M28207 22
L30549 2364
" />
<path d="M28900 22
L31242 2364
" />
<path d="M29593 22
L31935 2364
" />
<path d="M30286 22
L32628 2364
" />
<path d="M30979 22
L33321 2364
" />
<path d="M31672 22
L34014 2364
" />
<path d="M32365 22
L34707 2364
" />
<path d="M33058 22
L35400 2364
" />
<path d="M33751 22
L36093 2364
" />
<path d="M34444 22
L36786 2364
" />
<path d="M35137 22
L37479 2364
" />
<path d="M35830 22
L38172 2364
" />
<path d="M36523 22
L38865 2364
" />
<path d="M37216 22
L39289 2096
" />
<path d="M37909 22
L39289 1403
" />
<path d="M38602 22
L39289 710
" />
<path d="M39289 24503
L38815 24977
" />
<path d="M39289 23810
L38122 24977
" />
<path d="M39289 23117
L37429 24977
" />
<path d="M39215 22498
L36736 24977
" />
<path d="M38522 22498
L36043 24977
" />
<path d="M37829 22498
L35350 24977
" />
<path d="M37136 22498
L34657 24977
" />
<path d="M35746 23195
L33964 24977
" />
<path d="M36443 22498
L36369 22572
" />
<path d="M35684 22564
L33271 24977
" />
<path d="M35750 22498
L35738 22510
" />
<path d="M35057 22498
L32578 24977
" />
<path d="M34364 22498
L31885 24977
" />
<path d="M33671 22498
L31192 24977
" />
<path d="M32978 22498
L30499 24977
" />
<path d="M32285 22498
L29807 24977
" />
<path d="M31592 22498
L29114 24977
" />
<path d="M30899 22498
L28421 24977
" />
<path d="M29521 23183
L27728 24977
" />
<path d="M30206 22498
L29766 22938
" />
<path d="M29081 22930
L27035 24977
" />
<path d="M28820 22498
L26342 24977
" />
<path d="M28127 22498
L25649 24977
" />
<path d="M27434 22498
L24956 24977
" />
<path d="M26741 22498
L24263 24977
" />
<path d="M26048 22498
L23570 24977
" />
<path d="M25355 22498
L22877 24977
" />
<path d="M24663 22498
L22184 24977
" />
<path d="M23970 22498
L21491 24977
" />
<path d="M22580 23195
L20798 24977
" />
<path d="M23277 22498
L23251 22524
" />
<path d="M22584 22498
L20105 24977
" />
<path d="M21891 22498
L19412 24977
" />
<path d="M21198 22498
L18719 24977
" />
<path d="M20505 22498
L18026 24977
" />
<path d="M19812 22498
L17333 24977
" />
<path d="M19119 22498
L16640 24977
" />
<path d="M39289 2328
L39253 2364
" />
<path d="M18426 22498
L15947 24977
" />
<path d="M39289 1635
L38560 2364
" />
<path d="M17733 22498
L15254 24977
" />
<path d="M39289 942
L37867 2364
" />
<path d="M16343 23195
L14561 24977
" />
<path d="M17040 22498
L16727 22811
" />
<path d="M39289 249
L37174 2364
" />
<path d="M16042 22803
L13868 24977
" />
<path d="M38823 22
L36481 2364
" />
<path d="M15654 22498
L13175 24977
" />
<path d="M38130 22
L35788 2364
" />
<path d="M14961 22498
L12482 24977
" />
<path d="M37437 22
L35095 2364
" />
<path d="M14268 22498
L11789 24977
" />
<path d="M36744 22
L34402 2364
" />
<path d="M13575 22498
L11096 24977
" />
<path d="M36051 22
L33709 2364
" />
<path d="M12882 22498
L10404 24977
" />
<path d="M35358 22
L33016 2364
" />
<path d="M12189 22498
L9711 24977
" />
<path d="M34665 22
L32323 2364
" />
<path d="M11496 22498
L9018 24977
" />
<path d="M33972 22
L31630 2364
" />
<path d="M10106 23195
L8325 24977
" />
<path d="M10803 22498
L10168 23133
" />
<path d="M33279 22
L30937 2364
" />
<path d="M9483 23125
L7632 24977
" />
<path d="M10110 22498
L10099 22509
" />
<path d="M32586 22
L30244 2364
" />
<path d="M9417 22498
L6939 24977
" />
<path d="M31893 22
L29551 2364
" />
<path d="M8724 22498
L6246 24977
" />
<path d="M31200 22
L28858 2364
" />
<path d="M8031 22498
L5553 24977
" />
<path d="M30507 22
L28165 2364
" />
<path d="M7338 22498
L4860 24977
" />
<path d="M29814 22
L27472 2364
" />
<path d="M6645 22498
L4167 24977
" />
<path d="M29121 22
L26779 2364
" />
<path d="M5953 22498
L3474 24977
" />
<path d="M28428 22
L26086 2364
" />
<path d="M5260 22498
L2781 24977
" />
<path d="M27735 22
L25393 2364
" />
<path d="M4567 22498
L2088 24977
" />
<path d="M27042 22
L24700 2364
" />
<path d="M3177 23195
L1395 24977
" />
<path d="M3874 22498
L3633 22739
" />
<path d="M26349 22
L24008 2364
" />
<path d="M2948 22731
L702 24977
" />
<path d="M25656 22
L23315 2364
" />
<path d="M2488 22498
L22 24963
" />
<path d="M24963 22
L22622 2364
" />
<path d="M1795 22498
L22 24270
" />
<path d="M24270 22
L21929 2364
" />
<path d="M1102 22498
L22 23577
" />
<path d="M23577 22
L21236 2364
" />
<path d="M409 22498
L22 22884
" />
<path d="M22884 22
L20543 2364
" />
<path d="M22192 22
L19850 2364
" />
<path d="M21499 22
L19157 2364
" />
<path d="M20806 22
L18464 2364
" />
<path d="M20113 22
L17771 2364
" />
<path d="M19420 22
L17078 2364
" />
<path d="M18727 22
L16385 2364
" />
<path d="M18034 22
L15692 2364
" />
<path d="M17341 22
L14999 2364
" />
<path d="M16648 22
L14306 2364
" />
<path d="M15955 22
L13613 2364
" />
<path d="M15262 22
L12920 2364
" />
<path d="M14569 22
L12227 2364
" />
<path d="M13876 22
L11534 2364
" />
<path d="M13183 22
L10841 2364
" />
<path d="M12490 22
L10148 2364
" />
<path d="M11797 22
L9455 2364
" />
<path d="M11104 22
L8762 2364
" />
<path d="M10411 22
L8069 2364
" />
<path d="M9718 22
L7376 2364
" />
<path d="M9025 22
L6683 2364
" />
<path d="M8332 22
L5990 2364
" />
<path d="M7639 22
L5297 2364
" />
<path d="M6946 22
L4605 2364
" />
<path d="M6253 22
L3912 2364
" />
<path d="M5560 22
L3219 2364
" />
<path d="M4867 22
L2526 2364
" />
<path d="M4174 22
L1833 2364
" />
<path d="M3481 22
L1140 2364
" />
<path d="M2788 22
L447 2364
" />
<path d="M2096 22
L22 2096
" />
<path d="M1403 22
L22 1403
" />
<path d="M710 22
L22 710
" />
</g>
<g >
</g>
</g>
<g style="fill:#FFFFFF; fill-opacity:0.0; 
stroke:#FFFFFF; stroke-width:40; stroke-opacity:1; 
stroke-linecap:round; stroke-linejoin:round;">
</g>
<g style="fill:#000000; fill-opacity:0.0; 
stroke:#000000; stroke-width:40; stroke-opacity:1; 
stroke-linecap:round; stroke-linejoin:round;">
</g> 
</svg>
